<svg width="80" height="107" viewBox="0 0 80 107" fill="none" xmlns="http://www.w3.org/2000/svg">
<path d="M63.2524 46.5476L61.2173 51.3347L39.6187 32.907L39.2954 32.6306L38.9712 32.906L17.2349 51.3074L13.9868 47.4949L39.2925 25.8376L63.2524 46.5476Z" fill="#A33757" stroke="#A33757"/>
<path d="M61.1421 52.0602H56.7319L39.3618 37.0465L39.2974 36.9899L39.2319 37.0455L21.5659 52.0602H17.3042L39.2964 33.4196L61.1421 52.0602Z" fill="url(#paint0_linear_350_14571)" stroke="#A33757" stroke-width="0.2"/>
<path d="M42.5827 78.6957L53.641 85.694L54.2308 86.0673M46.2688 75.3048C50.4146 78.1836 56.8848 82.6764 56.8848 82.6764C56.6856 84.5224 56.3286 86.1979 54.2308 86.0673M40.9609 82.6764L49.66 87.9839L51.2819 89.0159C54.0677 89.0847 54.6731 86.8828 54.2308 86.0673M39.4864 86.9518L44.6469 89.6056L46.2688 90.785C49.4076 90.7146 49.6898 89.8413 49.66 87.9839M36.0952 89.6056C41.2237 93.4881 37.1366 90.8563 40.2236 92.5542C43.2116 93.0216 44.1689 92.0037 44.6469 89.6056" stroke="#A33757"/>
<path d="M22.9155 80.0229C22.2365 76.3022 18.5021 73.2096 13.1226 72.2091" stroke="#A33757"/>
<path d="M21.4873 59.5283C21.3002 63.2517 23.9582 64.4532 27.7416 65.2781C32.409 63.7625 36.877 65.1356 38.9473 66.3101M29.8058 72.6497C32.1484 72.4033 32.4482 71.5318 32.6072 69.701M47.6465 66.1627C50.9493 65.7034 55.4258 63.7751 58.5573 61.2975M53.2493 80.6109C55.8892 78.2722 58.1952 77.0863 58.5573 74.7137C60.1379 71.9977 64.8234 71.3347 67.1949 71.1753" stroke="#A33757"/>
<path d="M27.5796 80.2625C28.1164 78.2305 27.9787 77.7209 26.2067 77.166C26.2067 77.166 25.3166 77.5386 21.931 80.8065C21.1099 83.9641 23.8648 83.3581 24.7967 83.1881M32.6709 80.8063C32.0257 77.6755 29.4506 77.9036 27.5796 80.2625C25.0788 82.8916 27.2975 80.559 24.7967 83.1881M24.7967 83.1881C23.6409 86.5799 24.3259 87.2249 26.7258 87.2655M32.6709 80.8063C34.4987 81.1389 35.3004 81.5858 34.758 84.6779M32.6709 80.8063L26.7258 87.2655M34.758 84.6779C37.0172 85.6139 38.1581 85.5316 37.1176 88.371L33.5383 91.523C34.7691 90.6688 30.5451 93.9294 29.7455 89.8454M34.758 84.6779L29.7455 89.8454M29.7455 89.8454C27.0671 89.4956 25.8013 89.9799 26.7258 87.2655" stroke="#A33757"/>
<path d="M47.8468 66.1635C41.3118 64.7974 38.1233 66.3273 32.5127 69.407C29.1657 70.7971 29.058 71.8186 30.1536 73.8299C33.7551 74.6462 35.0322 73.795 36.936 71.6184C38.9695 72.5872 39.9783 72.1852 41.8016 71.6184C45.68 75.8509 47.4131 75.6081 50.5008 75.1568" stroke="#A33757"/>
<path d="M66.7427 50.9064L75.4992 61.8837C76.7481 63.4496 76.4313 65.7799 74.7641 67.0242C73.5889 67.9014 72.535 68.7274 71.5083 69.581C69.8479 70.9611 67.4468 70.7487 66.1876 69.1703L57.6265 58.4381C56.3177 56.7973 56.7287 54.2294 58.6401 52.7994C59.5527 52.1166 60.42 51.4015 61.2993 50.616C62.9728 49.1214 65.4536 49.2903 66.7427 50.9064Z" fill="#A33757" stroke="#A33757" stroke-width="3"/>
<path d="M3.85273 63.9771L11.4216 51.3912C12.4645 49.6575 14.7865 49.1562 16.5186 50.3229C17.6133 51.0604 18.5936 51.6937 19.5031 52.2461C21.5998 53.5196 22.3593 56.1469 21.2587 57.9771L14.031 69.9956C13.0293 71.6614 10.8467 72.2008 9.15652 71.1885C7.72774 70.3328 6.41298 69.5568 5.0343 68.7373C3.39225 67.7613 2.85906 65.6297 3.85273 63.9771Z" fill="#A33757" stroke="#A33757" stroke-width="3"/>
<rect x="0.197042" y="0.679056" width="9.38154" height="2.66401" transform="matrix(0.876176 0.481991 -0.482093 0.87612 5.36495 65.8797)" stroke="#A33757"/>
<circle cx="2" cy="2" r="2" transform="matrix(0.876176 0.481991 -0.482093 0.87612 3.93115 64)" fill="white"/>
<circle cx="2" cy="2" r="2" transform="matrix(0.876176 0.481991 -0.482093 0.87612 9.56787 67.3019)" fill="white"/>
<rect x="34.4077" y="50.1525" width="3.7182" height="3.71779" fill="#A33757" stroke="#A33757"/>
<rect x="34.4077" y="56.0493" width="3.7182" height="3.71779" fill="#A33757" stroke="#A33757"/>
<rect x="40.3452" y="50.1525" width="3.7182" height="3.71779" fill="#A33757" stroke="#A33757"/>
<rect x="40.3452" y="56.0493" width="3.7182" height="3.71779" fill="#A33757" stroke="#A33757"/>
<rect x="14.0952" y="9.75659" width="3.7182" height="3.71779" fill="white" stroke="#A33757"/>
<path d="M26.1011 0.5V37.7021L25.853 37.8477L24.1235 38.8555L22.4272 40.2676L17.5972 46.709L17.5093 46.8252L17.3726 46.877L15.0132 47.7617L14.9839 47.7715L11.5923 48.8037L10.9468 49V0.5H26.1011Z" fill="#A33757" stroke="#A33757"/>
<rect x="16.6929" y="4.74487" width="3.7182" height="3.71779" fill="white" stroke="#A33757"/>
<rect x="16.6929" y="14.4731" width="3.7182" height="3.71779" fill="white" stroke="#A33757"/>
<rect x="16.6929" y="24.2043" width="3.7182" height="3.71779" fill="white" stroke="#A33757"/>
<rect x="16.6929" y="33.9353" width="3.7182" height="3.71779" fill="white" stroke="#A33757"/>
<path d="M65.5737 1.5V49.3906L52.4194 37.1973V1.5H65.5737Z" fill="#A33757" stroke="#A33757"/>
<rect x="57.1655" y="4.74487" width="3.7182" height="3.71779" fill="white" stroke="#A33757"/>
<rect x="57.1655" y="14.4731" width="3.7182" height="3.71779" fill="white" stroke="#A33757"/>
<rect x="57.1655" y="24.2043" width="3.7182" height="3.71779" fill="white" stroke="#A33757"/>
<rect x="57.1655" y="33.9353" width="3.7182" height="3.71779" fill="white" stroke="#A33757"/>
<mask id="path-28-outside-1_350_14571" maskUnits="userSpaceOnUse" x="11" y="97.8927" width="59" height="9" fill="black">
<rect fill="white" x="11" y="97.8927" width="59" height="9"/>
<path d="M17.0744 105.893H11.3322V105.576H12.2697V99.1779H11.3322V98.8615H14.9064V99.1779H13.9103V105.576H15.1173C15.3517 105.576 15.5588 105.537 15.7384 105.459C16.0431 105.311 16.2775 104.975 16.4416 104.451L16.7814 103.35H17.1213L17.0744 105.893ZM20.5778 100.983C19.9528 101.006 19.613 101.666 19.5583 102.963L20.3083 102.998C20.6208 103.014 20.8552 102.994 21.0114 102.94C21.2302 102.854 21.3395 102.627 21.3395 102.26C21.3317 101.424 21.0778 100.998 20.5778 100.983ZM22.7692 104.686C22.7223 104.811 22.6598 104.932 22.5817 105.049C22.1833 105.69 21.527 106.01 20.613 106.01C20.0973 106.01 19.6364 105.904 19.2302 105.693C18.3786 105.248 17.9528 104.459 17.9528 103.326C17.9528 102.631 18.1403 102.049 18.5153 101.58C19.0075 100.979 19.695 100.678 20.5778 100.678C21.0622 100.678 21.4958 100.76 21.8786 100.924C22.5583 101.229 22.8981 101.713 22.8981 102.377C22.8981 102.51 22.8747 102.631 22.8278 102.74C22.6247 103.178 21.8942 103.377 20.6364 103.338L19.5583 103.303C19.5661 103.756 19.6052 104.147 19.6755 104.475C19.8552 105.272 20.2575 105.67 20.8825 105.67C21.0778 105.67 21.2692 105.635 21.4567 105.565C21.9255 105.393 22.2692 105.068 22.488 104.592L22.7692 104.686ZM23.718 105.893C23.718 105.838 23.7219 105.787 23.7297 105.74C23.7453 105.654 23.8078 105.608 23.9172 105.6C24.1516 105.561 24.3508 105.443 24.5148 105.248L25.8977 103.549L24.3039 101.158H23.7648V100.854H26.4836V101.158H25.8391L26.8703 102.717L28.0773 101.158H27.3156V100.854H29.05C29.05 100.908 29.0461 100.959 29.0383 101.006C29.0148 101.084 28.9445 101.131 28.8273 101.147C28.5852 101.17 28.3859 101.287 28.2297 101.498L27.0695 103.01L28.7805 105.588H29.0148C29.0539 105.588 29.0891 105.592 29.1203 105.6C29.2453 105.615 29.3078 105.713 29.3078 105.893H26.6008V105.588H27.2453L26.0734 103.83L24.6672 105.588H25.4875V105.893H23.718ZM35.2483 105.588C35.2952 105.588 35.3381 105.592 35.3772 105.6C35.4788 105.615 35.5295 105.713 35.5295 105.893H32.7873V105.588C32.8498 105.588 32.9084 105.584 32.9631 105.576C33.2991 105.537 33.467 105.338 33.467 104.979V101.158H32.7873V100.854H34.8733L34.9319 101.768C35.0022 101.627 35.0959 101.49 35.2131 101.358C35.6116 100.904 36.0959 100.678 36.6663 100.678C36.8694 100.678 37.0647 100.709 37.2522 100.772C37.9397 101.014 38.2834 101.619 38.2834 102.588V105.588H38.6702C38.717 105.588 38.7639 105.592 38.8108 105.6C38.9123 105.615 38.9631 105.713 38.9631 105.893H36.2561V105.588C36.3655 105.588 36.4592 105.576 36.5373 105.553C36.7092 105.498 36.7952 105.307 36.7952 104.979V102.389C36.7952 102.279 36.7873 102.174 36.7717 102.072C36.6936 101.549 36.4319 101.287 35.9866 101.287C35.8694 101.287 35.7561 101.315 35.6467 101.369C35.2483 101.565 35.0217 101.971 34.967 102.588L34.9553 105.588H35.2483ZM48.3606 105.893H42.6184V105.576H43.5559V99.1779H42.6184V98.8615H46.1927V99.1779H45.1966V105.576H46.4036C46.638 105.576 46.845 105.537 47.0247 105.459C47.3294 105.311 47.5638 104.975 47.7278 104.451L48.0677 103.35H48.4075L48.3606 105.893ZM53.4344 106.01C52.8094 105.971 52.4148 105.615 52.2508 104.943C52.2117 105.053 52.1609 105.158 52.0984 105.26C51.7859 105.76 51.2977 106.01 50.6336 106.01C50.4148 106.01 50.2156 105.983 50.0359 105.928C49.4266 105.733 49.1219 105.287 49.1219 104.592C49.1297 103.568 50.1375 103.037 52.1453 102.998V102.236C52.1453 102.01 52.1297 101.815 52.0984 101.651C52.0203 101.205 51.7977 100.983 51.4305 100.983C51.3211 100.983 51.2234 101.002 51.1375 101.041C51.0047 101.119 50.8953 101.315 50.8094 101.627C50.7781 101.736 50.7547 101.815 50.7391 101.861C50.6219 102.19 50.3953 102.354 50.0594 102.354C49.9813 102.354 49.907 102.342 49.8367 102.318C49.5477 102.24 49.4031 102.049 49.4031 101.744C49.4031 101.611 49.4383 101.486 49.5086 101.369C49.782 100.908 50.45 100.678 51.5125 100.678C51.7859 100.678 52.0398 100.705 52.2742 100.76C53.1805 100.986 53.6336 101.588 53.6336 102.565V105.014C53.6336 105.389 53.7195 105.584 53.8914 105.6C54.118 105.592 54.2547 105.318 54.3016 104.779L54.6063 104.791C54.5828 105.033 54.5477 105.233 54.5008 105.389C54.3602 105.803 54.0047 106.01 53.4344 106.01ZM51.243 105.506C51.2977 105.506 51.3602 105.494 51.4305 105.471C51.7586 105.346 51.9969 105.01 52.1453 104.463V103.326C51.7938 103.342 51.5047 103.385 51.2781 103.455C50.8563 103.611 50.6453 103.947 50.6453 104.463C50.6531 105.143 50.8523 105.49 51.243 105.506ZM57.8402 105.588C57.887 105.588 57.93 105.592 57.9691 105.6C58.0706 105.615 58.1214 105.713 58.1214 105.893H55.3792V105.588C55.4417 105.588 55.5003 105.584 55.555 105.576C55.8909 105.537 56.0589 105.338 56.0589 104.979V101.158H55.3792V100.854H57.4652L57.5238 101.768C57.5941 101.627 57.6878 101.49 57.805 101.358C58.2034 100.904 58.6878 100.678 59.2581 100.678C59.4613 100.678 59.6566 100.709 59.8441 100.772C60.5316 101.014 60.8753 101.619 60.8753 102.588V105.588H61.262C61.3089 105.588 61.3558 105.592 61.4027 105.6C61.5042 105.615 61.555 105.713 61.555 105.893H58.848V105.588C58.9573 105.588 59.0511 105.576 59.1292 105.553C59.3011 105.498 59.387 105.307 59.387 104.979V102.389C59.387 102.279 59.3792 102.174 59.3636 102.072C59.2855 101.549 59.0238 101.287 58.5784 101.287C58.4613 101.287 58.348 101.315 58.2386 101.369C57.8402 101.565 57.6136 101.971 57.5589 102.588L57.5472 105.588H57.8402ZM66.6287 105.893L66.4647 104.791C66.4256 104.893 66.3787 104.99 66.3241 105.084C65.9725 105.701 65.4334 106.01 64.7069 106.01C64.2694 106.01 63.8709 105.877 63.5116 105.611C62.8787 105.151 62.5623 104.436 62.5623 103.467C62.5623 102.686 62.7655 102.037 63.1717 101.522C63.6405 100.951 64.2459 100.666 64.9881 100.666C65.5428 100.666 66.0194 100.838 66.4178 101.182V98.5802H65.3514V98.2755H67.9061V105.576H68.4452C68.4998 105.576 68.5467 105.58 68.5858 105.588C68.6795 105.611 68.7264 105.713 68.7264 105.893H66.6287ZM64.1678 103.326C64.1678 103.623 64.1873 103.893 64.2264 104.135C64.3592 105.026 64.6991 105.471 65.2459 105.471C65.41 105.471 65.5623 105.428 65.703 105.342C66.1952 105.022 66.4412 104.276 66.4412 103.104C66.4412 102.838 66.4256 102.588 66.3944 102.354C66.2616 101.486 65.9139 101.053 65.3514 101.053C65.1952 101.053 65.0467 101.092 64.9061 101.17C64.4139 101.467 64.1678 102.186 64.1678 103.326Z"/>
</mask>
<path d="M17.0744 105.893H11.3322V105.576H12.2697V99.1779H11.3322V98.8615H14.9064V99.1779H13.9103V105.576H15.1173C15.3517 105.576 15.5588 105.537 15.7384 105.459C16.0431 105.311 16.2775 104.975 16.4416 104.451L16.7814 103.35H17.1213L17.0744 105.893ZM20.5778 100.983C19.9528 101.006 19.613 101.666 19.5583 102.963L20.3083 102.998C20.6208 103.014 20.8552 102.994 21.0114 102.94C21.2302 102.854 21.3395 102.627 21.3395 102.26C21.3317 101.424 21.0778 100.998 20.5778 100.983ZM22.7692 104.686C22.7223 104.811 22.6598 104.932 22.5817 105.049C22.1833 105.69 21.527 106.01 20.613 106.01C20.0973 106.01 19.6364 105.904 19.2302 105.693C18.3786 105.248 17.9528 104.459 17.9528 103.326C17.9528 102.631 18.1403 102.049 18.5153 101.58C19.0075 100.979 19.695 100.678 20.5778 100.678C21.0622 100.678 21.4958 100.76 21.8786 100.924C22.5583 101.229 22.8981 101.713 22.8981 102.377C22.8981 102.51 22.8747 102.631 22.8278 102.74C22.6247 103.178 21.8942 103.377 20.6364 103.338L19.5583 103.303C19.5661 103.756 19.6052 104.147 19.6755 104.475C19.8552 105.272 20.2575 105.67 20.8825 105.67C21.0778 105.67 21.2692 105.635 21.4567 105.565C21.9255 105.393 22.2692 105.068 22.488 104.592L22.7692 104.686ZM23.718 105.893C23.718 105.838 23.7219 105.787 23.7297 105.74C23.7453 105.654 23.8078 105.608 23.9172 105.6C24.1516 105.561 24.3508 105.443 24.5148 105.248L25.8977 103.549L24.3039 101.158H23.7648V100.854H26.4836V101.158H25.8391L26.8703 102.717L28.0773 101.158H27.3156V100.854H29.05C29.05 100.908 29.0461 100.959 29.0383 101.006C29.0148 101.084 28.9445 101.131 28.8273 101.147C28.5852 101.17 28.3859 101.287 28.2297 101.498L27.0695 103.01L28.7805 105.588H29.0148C29.0539 105.588 29.0891 105.592 29.1203 105.6C29.2453 105.615 29.3078 105.713 29.3078 105.893H26.6008V105.588H27.2453L26.0734 103.83L24.6672 105.588H25.4875V105.893H23.718ZM35.2483 105.588C35.2952 105.588 35.3381 105.592 35.3772 105.6C35.4788 105.615 35.5295 105.713 35.5295 105.893H32.7873V105.588C32.8498 105.588 32.9084 105.584 32.9631 105.576C33.2991 105.537 33.467 105.338 33.467 104.979V101.158H32.7873V100.854H34.8733L34.9319 101.768C35.0022 101.627 35.0959 101.49 35.2131 101.358C35.6116 100.904 36.0959 100.678 36.6663 100.678C36.8694 100.678 37.0647 100.709 37.2522 100.772C37.9397 101.014 38.2834 101.619 38.2834 102.588V105.588H38.6702C38.717 105.588 38.7639 105.592 38.8108 105.6C38.9123 105.615 38.9631 105.713 38.9631 105.893H36.2561V105.588C36.3655 105.588 36.4592 105.576 36.5373 105.553C36.7092 105.498 36.7952 105.307 36.7952 104.979V102.389C36.7952 102.279 36.7873 102.174 36.7717 102.072C36.6936 101.549 36.4319 101.287 35.9866 101.287C35.8694 101.287 35.7561 101.315 35.6467 101.369C35.2483 101.565 35.0217 101.971 34.967 102.588L34.9553 105.588H35.2483ZM48.3606 105.893H42.6184V105.576H43.5559V99.1779H42.6184V98.8615H46.1927V99.1779H45.1966V105.576H46.4036C46.638 105.576 46.845 105.537 47.0247 105.459C47.3294 105.311 47.5638 104.975 47.7278 104.451L48.0677 103.35H48.4075L48.3606 105.893ZM53.4344 106.01C52.8094 105.971 52.4148 105.615 52.2508 104.943C52.2117 105.053 52.1609 105.158 52.0984 105.26C51.7859 105.76 51.2977 106.01 50.6336 106.01C50.4148 106.01 50.2156 105.983 50.0359 105.928C49.4266 105.733 49.1219 105.287 49.1219 104.592C49.1297 103.568 50.1375 103.037 52.1453 102.998V102.236C52.1453 102.01 52.1297 101.815 52.0984 101.651C52.0203 101.205 51.7977 100.983 51.4305 100.983C51.3211 100.983 51.2234 101.002 51.1375 101.041C51.0047 101.119 50.8953 101.315 50.8094 101.627C50.7781 101.736 50.7547 101.815 50.7391 101.861C50.6219 102.19 50.3953 102.354 50.0594 102.354C49.9813 102.354 49.907 102.342 49.8367 102.318C49.5477 102.24 49.4031 102.049 49.4031 101.744C49.4031 101.611 49.4383 101.486 49.5086 101.369C49.782 100.908 50.45 100.678 51.5125 100.678C51.7859 100.678 52.0398 100.705 52.2742 100.76C53.1805 100.986 53.6336 101.588 53.6336 102.565V105.014C53.6336 105.389 53.7195 105.584 53.8914 105.6C54.118 105.592 54.2547 105.318 54.3016 104.779L54.6063 104.791C54.5828 105.033 54.5477 105.233 54.5008 105.389C54.3602 105.803 54.0047 106.01 53.4344 106.01ZM51.243 105.506C51.2977 105.506 51.3602 105.494 51.4305 105.471C51.7586 105.346 51.9969 105.01 52.1453 104.463V103.326C51.7938 103.342 51.5047 103.385 51.2781 103.455C50.8563 103.611 50.6453 103.947 50.6453 104.463C50.6531 105.143 50.8523 105.49 51.243 105.506ZM57.8402 105.588C57.887 105.588 57.93 105.592 57.9691 105.6C58.0706 105.615 58.1214 105.713 58.1214 105.893H55.3792V105.588C55.4417 105.588 55.5003 105.584 55.555 105.576C55.8909 105.537 56.0589 105.338 56.0589 104.979V101.158H55.3792V100.854H57.4652L57.5238 101.768C57.5941 101.627 57.6878 101.49 57.805 101.358C58.2034 100.904 58.6878 100.678 59.2581 100.678C59.4613 100.678 59.6566 100.709 59.8441 100.772C60.5316 101.014 60.8753 101.619 60.8753 102.588V105.588H61.262C61.3089 105.588 61.3558 105.592 61.4027 105.6C61.5042 105.615 61.555 105.713 61.555 105.893H58.848V105.588C58.9573 105.588 59.0511 105.576 59.1292 105.553C59.3011 105.498 59.387 105.307 59.387 104.979V102.389C59.387 102.279 59.3792 102.174 59.3636 102.072C59.2855 101.549 59.0238 101.287 58.5784 101.287C58.4613 101.287 58.348 101.315 58.2386 101.369C57.8402 101.565 57.6136 101.971 57.5589 102.588L57.5472 105.588H57.8402ZM66.6287 105.893L66.4647 104.791C66.4256 104.893 66.3787 104.99 66.3241 105.084C65.9725 105.701 65.4334 106.01 64.7069 106.01C64.2694 106.01 63.8709 105.877 63.5116 105.611C62.8787 105.151 62.5623 104.436 62.5623 103.467C62.5623 102.686 62.7655 102.037 63.1717 101.522C63.6405 100.951 64.2459 100.666 64.9881 100.666C65.5428 100.666 66.0194 100.838 66.4178 101.182V98.5802H65.3514V98.2755H67.9061V105.576H68.4452C68.4998 105.576 68.5467 105.58 68.5858 105.588C68.6795 105.611 68.7264 105.713 68.7264 105.893H66.6287ZM64.1678 103.326C64.1678 103.623 64.1873 103.893 64.2264 104.135C64.3592 105.026 64.6991 105.471 65.2459 105.471C65.41 105.471 65.5623 105.428 65.703 105.342C66.1952 105.022 66.4412 104.276 66.4412 103.104C66.4412 102.838 66.4256 102.588 66.3944 102.354C66.2616 101.486 65.9139 101.053 65.3514 101.053C65.1952 101.053 65.0467 101.092 64.9061 101.17C64.4139 101.467 64.1678 102.186 64.1678 103.326Z" fill="#A33757"/>
<path d="M17.0744 105.893V106.193H17.3689L17.3743 105.898L17.0744 105.893ZM11.3322 105.893H11.0322V106.193H11.3322V105.893ZM11.3322 105.576V105.276H11.0322V105.576H11.3322ZM12.2697 105.576V105.876H12.5697V105.576H12.2697ZM12.2697 99.1779H12.5697V98.8779H12.2697V99.1779ZM11.3322 99.1779H11.0322V99.4779H11.3322V99.1779ZM11.3322 98.8615V98.5615H11.0322V98.8615H11.3322ZM14.9064 98.8615H15.2064V98.5615H14.9064V98.8615ZM14.9064 99.1779V99.4779H15.2064V99.1779H14.9064ZM13.9103 99.1779V98.8779H13.6103V99.1779H13.9103ZM13.9103 105.576H13.6103V105.876H13.9103V105.576ZM15.7384 105.459L15.8582 105.734L15.8698 105.729L15.7384 105.459ZM16.4416 104.451L16.7278 104.541L16.7282 104.54L16.4416 104.451ZM16.7814 103.35V103.05H16.56L16.4947 103.261L16.7814 103.35ZM17.1213 103.35L17.4212 103.355L17.4268 103.05H17.1213V103.35ZM17.0744 105.893V105.593H11.3322V105.893V106.193H17.0744V105.893ZM11.3322 105.893H11.6322V105.576H11.3322H11.0322V105.893H11.3322ZM11.3322 105.576V105.876H12.2697V105.576V105.276H11.3322V105.576ZM12.2697 105.576H12.5697V99.1779H12.2697H11.9697V105.576H12.2697ZM12.2697 99.1779V98.8779H11.3322V99.1779V99.4779H12.2697V99.1779ZM11.3322 99.1779H11.6322V98.8615H11.3322H11.0322V99.1779H11.3322ZM11.3322 98.8615V99.1615H14.9064V98.8615V98.5615H11.3322V98.8615ZM14.9064 98.8615H14.6064V99.1779H14.9064H15.2064V98.8615H14.9064ZM14.9064 99.1779V98.8779H13.9103V99.1779V99.4779H14.9064V99.1779ZM13.9103 99.1779H13.6103V105.576H13.9103H14.2103V99.1779H13.9103ZM13.9103 105.576V105.876H15.1173V105.576V105.276H13.9103V105.576ZM15.1173 105.576V105.876C15.3849 105.876 15.634 105.832 15.8581 105.734L15.7384 105.459L15.6188 105.184C15.4835 105.243 15.3185 105.276 15.1173 105.276V105.576ZM15.7384 105.459L15.8698 105.729C16.2837 105.527 16.5538 105.096 16.7278 104.541L16.4416 104.451L16.1553 104.362C16.0012 104.853 15.8026 105.094 15.607 105.189L15.7384 105.459ZM16.4416 104.451L16.7282 104.54L17.0681 103.438L16.7814 103.35L16.4947 103.261L16.1549 104.363L16.4416 104.451ZM16.7814 103.35V103.65H17.1213V103.35V103.05H16.7814V103.35ZM17.1213 103.35L16.8213 103.344L16.7744 105.887L17.0744 105.893L17.3743 105.898L17.4212 103.355L17.1213 103.35ZM20.5778 100.983L20.5872 100.683L20.5769 100.682L20.5666 100.683L20.5778 100.983ZM19.5583 102.963L19.2585 102.95L19.246 103.249L19.5442 103.263L19.5583 102.963ZM20.3083 102.998L20.3233 102.699L20.3223 102.698L20.3083 102.998ZM21.0114 102.94L21.1106 103.223L21.1211 103.219L21.0114 102.94ZM21.3395 102.26H21.6395L21.6395 102.257L21.3395 102.26ZM22.7692 104.686L23.0501 104.791L23.1594 104.5L22.8641 104.401L22.7692 104.686ZM22.5817 105.049L22.332 104.882L22.327 104.891L22.5817 105.049ZM19.2302 105.693L19.0911 105.959L19.0919 105.96L19.2302 105.693ZM18.5153 101.58L18.2831 101.39L18.2811 101.393L18.5153 101.58ZM21.8786 100.924L22.0013 100.65L21.9968 100.648L21.8786 100.924ZM22.8278 102.74L23.1 102.867L23.1036 102.859L22.8278 102.74ZM20.6364 103.338L20.6266 103.638L20.6271 103.638L20.6364 103.338ZM19.5583 103.303L19.5681 103.003L19.2529 102.993L19.2583 103.308L19.5583 103.303ZM19.6755 104.475L19.3821 104.538L19.3828 104.541L19.6755 104.475ZM21.4567 105.565L21.3534 105.283L21.3514 105.284L21.4567 105.565ZM22.488 104.592L22.5828 104.307L22.3276 104.222L22.2153 104.467L22.488 104.592ZM20.5778 100.983L20.5666 100.683C20.1237 100.699 19.7959 100.953 19.5874 101.358C19.3879 101.745 19.2866 102.286 19.2585 102.95L19.5583 102.963L19.858 102.976C19.8847 102.343 19.9806 101.905 20.1209 101.633C20.2523 101.377 20.4069 101.289 20.5891 101.282L20.5778 100.983ZM19.5583 102.963L19.5442 103.263L20.2942 103.298L20.3083 102.998L20.3223 102.698L19.5723 102.663L19.5583 102.963ZM20.3083 102.998L20.2933 103.298C20.6163 103.314 20.8981 103.297 21.1105 103.223L21.0114 102.94L20.9123 102.656C20.8122 102.691 20.6253 102.714 20.3233 102.699L20.3083 102.998ZM21.0114 102.94L21.1211 103.219C21.514 103.064 21.6395 102.671 21.6395 102.26H21.3395H21.0395C21.0395 102.583 20.9463 102.643 20.9017 102.66L21.0114 102.94ZM21.3395 102.26L21.6395 102.257C21.6354 101.818 21.5678 101.44 21.4009 101.16C21.221 100.858 20.9383 100.694 20.5872 100.683L20.5778 100.983L20.5684 101.282C20.7173 101.287 20.8116 101.343 20.8856 101.467C20.9725 101.613 21.0358 101.866 21.0395 102.263L21.3395 102.26ZM22.7692 104.686L22.4883 104.58C22.4499 104.683 22.3982 104.783 22.3321 104.883L22.5817 105.049L22.8313 105.215C22.9215 105.08 22.9948 104.939 23.0501 104.791L22.7692 104.686ZM22.5817 105.049L22.327 104.891C21.9955 105.423 21.4488 105.71 20.613 105.71V106.01V106.31C21.6052 106.31 22.3711 105.956 22.8365 105.207L22.5817 105.049ZM20.613 106.01V105.71C20.1393 105.71 19.7268 105.613 19.3684 105.427L19.2302 105.693L19.0919 105.96C19.546 106.196 20.0554 106.31 20.613 106.31V106.01ZM19.2302 105.693L19.3692 105.428C18.6363 105.044 18.2528 104.372 18.2528 103.326H17.9528H17.6528C17.6528 104.547 18.1209 105.452 19.0911 105.959L19.2302 105.693ZM17.9528 103.326H18.2528C18.2528 102.688 18.4237 102.175 18.7496 101.768L18.5153 101.58L18.2811 101.393C17.8569 101.923 17.6528 102.574 17.6528 103.326H17.9528ZM18.5153 101.58L18.7475 101.77C19.1745 101.248 19.7712 100.978 20.5778 100.978V100.678V100.378C19.6188 100.378 18.8405 100.709 18.2831 101.39L18.5153 101.58ZM20.5778 100.678V100.978C21.0281 100.978 21.4205 101.054 21.7604 101.2L21.8786 100.924L21.9968 100.648C21.571 100.466 21.0963 100.378 20.5778 100.378V100.678ZM21.8786 100.924L21.7559 101.198C22.059 101.334 22.2659 101.5 22.3977 101.688C22.5279 101.874 22.5981 102.099 22.5981 102.377H22.8981H23.1981C23.1981 101.991 23.0984 101.642 22.8888 101.343C22.6808 101.047 22.3779 100.819 22.0013 100.65L21.8786 100.924ZM22.8981 102.377H22.5981C22.5981 102.474 22.5812 102.554 22.5521 102.622L22.8278 102.74L23.1036 102.859C23.1682 102.708 23.1981 102.546 23.1981 102.377H22.8981ZM22.8278 102.74L22.5557 102.614C22.5083 102.716 22.3771 102.839 22.0487 102.928C21.7249 103.017 21.2618 103.057 20.6457 103.038L20.6364 103.338L20.6271 103.638C21.2689 103.658 21.7999 103.618 22.2066 103.507C22.6086 103.398 22.9442 103.202 23.0999 102.867L22.8278 102.74ZM20.6364 103.338L20.6462 103.038L19.5681 103.003L19.5583 103.303L19.5485 103.603L20.6266 103.638L20.6364 103.338ZM19.5583 103.303L19.2583 103.308C19.2664 103.774 19.3066 104.185 19.3821 104.538L19.6755 104.475L19.9688 104.412C19.9037 104.108 19.8658 103.738 19.8582 103.298L19.5583 103.303ZM19.6755 104.475L19.3828 104.541C19.48 104.972 19.6448 105.331 19.9009 105.584C20.1643 105.845 20.4999 105.97 20.8825 105.97V105.67V105.37C20.6401 105.37 20.462 105.296 20.3231 105.158C20.1768 105.013 20.0507 104.775 19.9681 104.409L19.6755 104.475ZM20.8825 105.67V105.97C21.1147 105.97 21.3417 105.928 21.5621 105.845L21.4567 105.565L21.3514 105.284C21.1967 105.342 21.0409 105.37 20.8825 105.37V105.67ZM21.4567 105.565L21.56 105.846C22.1079 105.645 22.5104 105.262 22.7606 104.717L22.488 104.592L22.2153 104.467C22.0281 104.875 21.743 105.14 21.3534 105.283L21.4567 105.565ZM22.488 104.592L22.3931 104.877L22.6744 104.97L22.7692 104.686L22.8641 104.401L22.5828 104.307L22.488 104.592ZM23.718 105.893H23.418V106.193H23.718V105.893ZM23.7297 105.74L23.4345 105.687L23.4338 105.691L23.7297 105.74ZM23.9172 105.6L23.9386 105.899L23.9526 105.898L23.9665 105.896L23.9172 105.6ZM24.5148 105.248L24.7446 105.441L24.7475 105.438L24.5148 105.248ZM25.8977 103.549L26.1303 103.738L26.27 103.567L26.1473 103.383L25.8977 103.549ZM24.3039 101.158L24.5535 100.992L24.4645 100.858H24.3039V101.158ZM23.7648 101.158H23.4648V101.458H23.7648V101.158ZM23.7648 100.854V100.554H23.4648V100.854H23.7648ZM26.4836 100.854H26.7836V100.554H26.4836V100.854ZM26.4836 101.158V101.458H26.7836V101.158H26.4836ZM25.8391 101.158V100.858H25.2808L25.5889 101.324L25.8391 101.158ZM26.8703 102.717L26.6201 102.882L26.8511 103.232L27.1075 102.901L26.8703 102.717ZM28.0773 101.158L28.3145 101.342L28.6891 100.858H28.0773V101.158ZM27.3156 101.158H27.0156V101.458H27.3156V101.158ZM27.3156 100.854V100.554H27.0156V100.854H27.3156ZM29.05 100.854H29.35V100.554H29.05V100.854ZM29.0383 101.006L29.3256 101.092L29.3311 101.074L29.3342 101.055L29.0383 101.006ZM28.8273 101.147L28.8563 101.445L28.867 101.444L28.8273 101.147ZM28.2297 101.498L28.4677 101.681L28.4708 101.677L28.2297 101.498ZM27.0695 103.01L26.8315 102.827L26.7011 102.997L26.8196 103.176L27.0695 103.01ZM28.7805 105.588L28.5305 105.754L28.6195 105.888H28.7805V105.588ZM29.1203 105.6L29.0476 105.891L29.0651 105.895L29.0831 105.897L29.1203 105.6ZM29.3078 105.893V106.193H29.6078V105.893H29.3078ZM26.6008 105.893H26.3008V106.193H26.6008V105.893ZM26.6008 105.588V105.288H26.3008V105.588H26.6008ZM27.2453 105.588V105.888H27.8059L27.4949 105.422L27.2453 105.588ZM26.0734 103.83L26.3231 103.664L26.0955 103.322L25.8392 103.643L26.0734 103.83ZM24.6672 105.588L24.4329 105.401L24.043 105.888H24.6672V105.588ZM25.4875 105.588H25.7875V105.288H25.4875V105.588ZM25.4875 105.893V106.193H25.7875V105.893H25.4875ZM23.718 105.893H24.018C24.018 105.852 24.0209 105.818 24.0256 105.79L23.7297 105.74L23.4338 105.691C23.4229 105.756 23.418 105.824 23.418 105.893H23.718ZM23.7297 105.74L24.0248 105.794C24.0233 105.803 24.0191 105.818 24.0088 105.835C23.9981 105.853 23.9839 105.869 23.9683 105.881C23.9384 105.903 23.9191 105.9 23.9386 105.899L23.9172 105.6L23.8958 105.3C23.8059 105.307 23.7007 105.331 23.6083 105.401C23.5092 105.475 23.4541 105.579 23.4345 105.687L23.7297 105.74ZM23.9172 105.6L23.9665 105.896C24.2768 105.844 24.5382 105.687 24.7446 105.441L24.5148 105.248L24.2851 105.055C24.1634 105.2 24.0264 105.277 23.8679 105.304L23.9172 105.6ZM24.5148 105.248L24.7475 105.438L26.1303 103.738L25.8977 103.549L25.665 103.36L24.2822 105.059L24.5148 105.248ZM25.8977 103.549L26.1473 103.383L24.5535 100.992L24.3039 101.158L24.0543 101.325L25.648 103.715L25.8977 103.549ZM24.3039 101.158V100.858H23.7648V101.158V101.458H24.3039V101.158ZM23.7648 101.158H24.0648V100.854H23.7648H23.4648V101.158H23.7648ZM23.7648 100.854V101.154H26.4836V100.854V100.554H23.7648V100.854ZM26.4836 100.854H26.1836V101.158H26.4836H26.7836V100.854H26.4836ZM26.4836 101.158V100.858H25.8391V101.158V101.458H26.4836V101.158ZM25.8391 101.158L25.5889 101.324L26.6201 102.882L26.8703 102.717L27.1205 102.551L26.0893 100.993L25.8391 101.158ZM26.8703 102.717L27.1075 102.901L28.3145 101.342L28.0773 101.158L27.8402 100.975L26.6331 102.533L26.8703 102.717ZM28.0773 101.158V100.858H27.3156V101.158V101.458H28.0773V101.158ZM27.3156 101.158H27.6156V100.854H27.3156H27.0156V101.158H27.3156ZM27.3156 100.854V101.154H29.05V100.854V100.554H27.3156V100.854ZM29.05 100.854H28.75C28.75 100.894 28.7471 100.928 28.7424 100.957L29.0383 101.006L29.3342 101.055C29.3451 100.99 29.35 100.922 29.35 100.854H29.05ZM29.0383 101.006L28.7509 100.92C28.7548 100.907 28.7615 100.893 28.7719 100.879C28.7822 100.865 28.7932 100.856 28.8016 100.85C28.8165 100.84 28.8179 100.845 28.7877 100.849L28.8273 101.147L28.867 101.444C29.0405 101.421 29.2537 101.332 29.3256 101.092L29.0383 101.006ZM28.8273 101.147L28.7984 100.848C28.4645 100.88 28.1909 101.046 27.9886 101.32L28.2297 101.498L28.4708 101.677C28.5809 101.528 28.7058 101.46 28.8562 101.445L28.8273 101.147ZM28.2297 101.498L27.9917 101.316L26.8315 102.827L27.0695 103.01L27.3075 103.193L28.4677 101.681L28.2297 101.498ZM27.0695 103.01L26.8196 103.176L28.5305 105.754L28.7805 105.588L29.0304 105.422L27.3195 102.844L27.0695 103.01ZM28.7805 105.588V105.888H29.0148V105.588V105.288H28.7805V105.588ZM29.0148 105.588V105.888C29.0344 105.888 29.0445 105.89 29.0476 105.891L29.1203 105.6L29.1931 105.309C29.1336 105.294 29.0734 105.288 29.0148 105.288V105.588ZM29.1203 105.6L29.0831 105.897C29.0788 105.897 29.0648 105.894 29.0472 105.884C29.029 105.873 29.0159 105.858 29.0083 105.846C29.0014 105.836 29.0016 105.831 29.0034 105.839C29.0053 105.847 29.0078 105.864 29.0078 105.893H29.3078H29.6078C29.6078 105.775 29.5884 105.64 29.5136 105.523C29.4298 105.392 29.2998 105.32 29.1575 105.302L29.1203 105.6ZM29.3078 105.893V105.593H26.6008V105.893V106.193H29.3078V105.893ZM26.6008 105.893H26.9008V105.588H26.6008H26.3008V105.893H26.6008ZM26.6008 105.588V105.888H27.2453V105.588V105.288H26.6008V105.588ZM27.2453 105.588L27.4949 105.422L26.3231 103.664L26.0734 103.83L25.8238 103.997L26.9957 105.754L27.2453 105.588ZM26.0734 103.83L25.8392 103.643L24.4329 105.401L24.6672 105.588L24.9014 105.775L26.3077 104.018L26.0734 103.83ZM24.6672 105.588V105.888H25.4875V105.588V105.288H24.6672V105.588ZM25.4875 105.588H25.1875V105.893H25.4875H25.7875V105.588H25.4875ZM25.4875 105.893V105.593H23.718V105.893V106.193H25.4875V105.893ZM35.3772 105.6L35.3183 105.894L35.3316 105.896L35.3772 105.6ZM35.5295 105.893V106.193H35.8295V105.893H35.5295ZM32.7873 105.893H32.4873V106.193H32.7873V105.893ZM32.7873 105.588V105.288H32.4873V105.588H32.7873ZM32.9631 105.576L32.9285 105.278L32.9207 105.279L32.9631 105.576ZM33.467 101.158H33.767V100.858H33.467V101.158ZM32.7873 101.158H32.4873V101.458H32.7873V101.158ZM32.7873 100.854V100.554H32.4873V100.854H32.7873ZM34.8733 100.854L35.1727 100.834L35.1547 100.554H34.8733V100.854ZM34.9319 101.768L34.6325 101.787L34.7035 102.895L35.2002 101.902L34.9319 101.768ZM35.2131 101.358L35.4381 101.556L35.4384 101.556L35.2131 101.358ZM37.2522 100.772L37.3519 100.489L37.3471 100.487L37.2522 100.772ZM38.2834 105.588H37.9834V105.888H38.2834V105.588ZM38.8108 105.6L38.7615 105.896L38.7652 105.896L38.8108 105.6ZM38.9631 105.893V106.193H39.2631V105.893H38.9631ZM36.2561 105.893H35.9561V106.193H36.2561V105.893ZM36.2561 105.588V105.288H35.9561V105.588H36.2561ZM36.5373 105.553L36.6236 105.84L36.6283 105.839L36.5373 105.553ZM36.7717 102.072L36.475 102.117L36.4752 102.118L36.7717 102.072ZM35.6467 101.369L35.7788 101.639L35.7809 101.638L35.6467 101.369ZM34.967 102.588L34.6682 102.562L34.6671 102.574L34.667 102.587L34.967 102.588ZM34.9553 105.588L34.6553 105.587L34.6541 105.888H34.9553V105.588ZM35.2483 105.588V105.888C35.2788 105.888 35.3017 105.891 35.3184 105.894L35.3772 105.6L35.436 105.306C35.3745 105.293 35.3116 105.288 35.2483 105.288V105.588ZM35.3772 105.6L35.3316 105.896C35.3127 105.893 35.2882 105.885 35.2648 105.868C35.2421 105.851 35.2302 105.833 35.2253 105.823C35.2209 105.815 35.2225 105.814 35.2249 105.827C35.2273 105.84 35.2295 105.861 35.2295 105.893H35.5295H35.8295C35.8295 105.782 35.815 105.657 35.7576 105.546C35.6918 105.42 35.5757 105.327 35.4228 105.303L35.3772 105.6ZM35.5295 105.893V105.593H32.7873V105.893V106.193H35.5295V105.893ZM32.7873 105.893H33.0873V105.588H32.7873H32.4873V105.893H32.7873ZM32.7873 105.588V105.888C32.8622 105.888 32.9351 105.883 33.0056 105.873L32.9631 105.576L32.9207 105.279C32.8818 105.285 32.8375 105.288 32.7873 105.288V105.588ZM32.9631 105.576L32.9978 105.874C33.2183 105.849 33.4239 105.765 33.5704 105.591C33.7147 105.42 33.767 105.202 33.767 104.979H33.467H33.167C33.167 105.114 33.1354 105.176 33.1117 105.204C33.0902 105.23 33.0439 105.265 32.9285 105.278L32.9631 105.576ZM33.467 104.979H33.767V101.158H33.467H33.167V104.979H33.467ZM33.467 101.158V100.858H32.7873V101.158V101.458H33.467V101.158ZM32.7873 101.158H33.0873V100.854H32.7873H32.4873V101.158H32.7873ZM32.7873 100.854V101.154H34.8733V100.854V100.554H32.7873V100.854ZM34.8733 100.854L34.5739 100.873L34.6325 101.787L34.9319 101.768L35.2313 101.749L35.1727 100.834L34.8733 100.854ZM34.9319 101.768L35.2002 101.902C35.2575 101.787 35.3359 101.672 35.4381 101.556L35.2131 101.358L34.9882 101.159C34.8559 101.309 34.7468 101.467 34.6635 101.634L34.9319 101.768ZM35.2131 101.358L35.4384 101.556C35.7836 101.163 36.1877 100.978 36.6663 100.978V100.678V100.378C36.0042 100.378 35.4395 100.646 34.9878 101.159L35.2131 101.358ZM36.6663 100.678V100.978C36.838 100.978 37.0013 101.004 37.1573 101.056L37.2522 100.772L37.3471 100.487C37.1281 100.414 36.9007 100.378 36.6663 100.378V100.678ZM37.2522 100.772L37.1525 101.055C37.4315 101.153 37.6304 101.319 37.7647 101.555C37.9029 101.799 37.9834 102.136 37.9834 102.588H38.2834H38.5834C38.5834 102.071 38.4921 101.621 38.2865 101.259C38.0771 100.89 37.7604 100.633 37.3519 100.489L37.2522 100.772ZM38.2834 102.588H37.9834V105.588H38.2834H38.5834V102.588H38.2834ZM38.2834 105.588V105.888H38.6702V105.588V105.288H38.2834V105.588ZM38.6702 105.588V105.888C38.7003 105.888 38.7307 105.891 38.7615 105.896L38.8108 105.6L38.8601 105.304C38.7972 105.293 38.7338 105.288 38.6702 105.288V105.588ZM38.8108 105.6L38.7652 105.896C38.7463 105.893 38.7218 105.885 38.6984 105.868C38.6757 105.851 38.6638 105.833 38.6589 105.823C38.6545 105.815 38.6561 105.814 38.6585 105.827C38.6609 105.84 38.6631 105.861 38.6631 105.893H38.9631H39.2631C39.2631 105.782 39.2486 105.657 39.1912 105.546C39.1254 105.42 39.0093 105.327 38.8564 105.303L38.8108 105.6ZM38.9631 105.893V105.593H36.2561V105.893V106.193H38.9631V105.893ZM36.2561 105.893H36.5561V105.588H36.2561H35.9561V105.893H36.2561ZM36.2561 105.588V105.888C36.3854 105.888 36.5098 105.874 36.6236 105.84L36.5373 105.553L36.4511 105.266C36.4087 105.278 36.3455 105.288 36.2561 105.288V105.588ZM36.5373 105.553L36.6283 105.839C36.8091 105.781 36.9327 105.651 37.0044 105.491C37.0717 105.341 37.0952 105.164 37.0952 104.979H36.7952H36.4952C36.4952 105.122 36.4756 105.204 36.457 105.245C36.4528 105.255 36.4492 105.261 36.4467 105.264C36.4455 105.266 36.4446 105.267 36.444 105.268C36.4433 105.269 36.443 105.269 36.443 105.269C36.443 105.269 36.4432 105.269 36.4436 105.269C36.4441 105.268 36.4446 105.268 36.4452 105.268C36.4464 105.267 36.447 105.267 36.4464 105.267L36.5373 105.553ZM36.7952 104.979H37.0952V102.389H36.7952H36.4952V104.979H36.7952ZM36.7952 102.389H37.0952C37.0952 102.265 37.0863 102.144 37.0682 102.027L36.7717 102.072L36.4752 102.118C36.4884 102.204 36.4952 102.294 36.4952 102.389H36.7952ZM36.7717 102.072L37.0684 102.028C37.0238 101.729 36.9211 101.464 36.729 101.271C36.5307 101.073 36.2715 100.987 35.9866 100.987V101.287V101.587C36.1469 101.587 36.2413 101.632 36.3047 101.696C36.3743 101.765 36.4415 101.892 36.475 102.117L36.7717 102.072ZM35.9866 101.287V100.987C35.8208 100.987 35.6617 101.026 35.5126 101.101L35.6467 101.369L35.7809 101.638C35.8505 101.603 35.918 101.587 35.9866 101.587V101.287ZM35.6467 101.369L35.5147 101.1C34.9869 101.359 34.7281 101.886 34.6682 102.562L34.967 102.588L35.2659 102.614C35.3154 102.056 35.5097 101.771 35.7788 101.639L35.6467 101.369ZM34.967 102.588L34.667 102.587L34.6553 105.587L34.9553 105.588L35.2553 105.589L35.267 102.589L34.967 102.588ZM34.9553 105.588V105.888H35.2483V105.588V105.288H34.9553V105.588ZM48.3606 105.893V106.193H48.6551L48.6606 105.898L48.3606 105.893ZM42.6184 105.893H42.3184V106.193H42.6184V105.893ZM42.6184 105.576V105.276H42.3184V105.576H42.6184ZM43.5559 105.576V105.876H43.8559V105.576H43.5559ZM43.5559 99.1779H43.8559V98.8779H43.5559V99.1779ZM42.6184 99.1779H42.3184V99.4779H42.6184V99.1779ZM42.6184 98.8615V98.5615H42.3184V98.8615H42.6184ZM46.1927 98.8615H46.4927V98.5615H46.1927V98.8615ZM46.1927 99.1779V99.4779H46.4927V99.1779H46.1927ZM45.1966 99.1779V98.8779H44.8966V99.1779H45.1966ZM45.1966 105.576H44.8966V105.876H45.1966V105.576ZM47.0247 105.459L47.1444 105.734L47.1561 105.729L47.0247 105.459ZM47.7278 104.451L48.0141 104.541L48.0145 104.54L47.7278 104.451ZM48.0677 103.35V103.05H47.8463L47.781 103.261L48.0677 103.35ZM48.4075 103.35L48.7075 103.355L48.7131 103.05H48.4075V103.35ZM48.3606 105.893V105.593H42.6184V105.893V106.193H48.3606V105.893ZM42.6184 105.893H42.9184V105.576H42.6184H42.3184V105.893H42.6184ZM42.6184 105.576V105.876H43.5559V105.576V105.276H42.6184V105.576ZM43.5559 105.576H43.8559V99.1779H43.5559H43.2559V105.576H43.5559ZM43.5559 99.1779V98.8779H42.6184V99.1779V99.4779H43.5559V99.1779ZM42.6184 99.1779H42.9184V98.8615H42.6184H42.3184V99.1779H42.6184ZM42.6184 98.8615V99.1615H46.1927V98.8615V98.5615H42.6184V98.8615ZM46.1927 98.8615H45.8927V99.1779H46.1927H46.4927V98.8615H46.1927ZM46.1927 99.1779V98.8779H45.1966V99.1779V99.4779H46.1927V99.1779ZM45.1966 99.1779H44.8966V105.576H45.1966H45.4966V99.1779H45.1966ZM45.1966 105.576V105.876H46.4036V105.576V105.276H45.1966V105.576ZM46.4036 105.576V105.876C46.6712 105.876 46.9202 105.832 47.1443 105.734L47.0247 105.459L46.9051 105.184C46.7698 105.243 46.6047 105.276 46.4036 105.276V105.576ZM47.0247 105.459L47.1561 105.729C47.5699 105.527 47.8401 105.096 48.0141 104.541L47.7278 104.451L47.4415 104.362C47.2874 104.853 47.0888 105.094 46.8933 105.189L47.0247 105.459ZM47.7278 104.451L48.0145 104.54L48.3543 103.438L48.0677 103.35L47.781 103.261L47.4411 104.363L47.7278 104.451ZM48.0677 103.35V103.65H48.4075V103.35V103.05H48.0677V103.35ZM48.4075 103.35L48.1076 103.344L48.0607 105.887L48.3606 105.893L48.6606 105.898L48.7075 103.355L48.4075 103.35ZM53.4344 106.01L53.4157 106.309L53.425 106.31H53.4344V106.01ZM52.2508 104.943L52.5422 104.872L52.3048 103.9L51.9683 104.843L52.2508 104.943ZM52.0984 105.26L52.3528 105.419L52.3539 105.417L52.0984 105.26ZM50.0359 105.928L49.9444 106.214L49.9486 106.215L50.0359 105.928ZM49.1219 104.592L48.8219 104.59V104.592H49.1219ZM52.1453 102.998L52.1511 103.298L52.4453 103.292V102.998H52.1453ZM52.0984 101.651L51.8029 101.702L51.8037 101.707L52.0984 101.651ZM51.1375 101.041L51.0134 100.768L50.999 100.775L50.9854 100.783L51.1375 101.041ZM50.8094 101.627L51.0978 101.709L51.0986 101.707L50.8094 101.627ZM50.7391 101.861L51.0216 101.962L51.0237 101.956L50.7391 101.861ZM49.8367 102.318L49.9316 102.034L49.9234 102.031L49.915 102.029L49.8367 102.318ZM49.5086 101.369L49.7658 101.524L49.7666 101.522L49.5086 101.369ZM52.2742 100.76L52.347 100.469L52.3424 100.468L52.2742 100.76ZM53.8914 105.6L53.8642 105.898L53.883 105.9L53.9017 105.9L53.8914 105.6ZM54.3016 104.779L54.3131 104.48L54.0275 104.469L54.0027 104.753L54.3016 104.779ZM54.6063 104.791L54.9049 104.82L54.9355 104.504L54.6178 104.491L54.6063 104.791ZM54.5008 105.389L54.785 105.485L54.7881 105.475L54.5008 105.389ZM51.243 105.506L51.231 105.806H51.243V105.506ZM51.4305 105.471L51.5254 105.756L51.5373 105.751L51.4305 105.471ZM52.1453 104.463L52.4348 104.542L52.4453 104.503V104.463H52.1453ZM52.1453 103.326H52.4453V103.013L52.132 103.027L52.1453 103.326ZM51.2781 103.455L51.1892 103.169L51.1815 103.171L51.1739 103.174L51.2781 103.455ZM50.6453 104.463H50.3453L50.3453 104.466L50.6453 104.463ZM53.4344 106.01L53.4531 105.71C53.1956 105.694 53.0088 105.616 52.8705 105.491C52.7298 105.364 52.6142 105.167 52.5422 104.872L52.2508 104.943L51.9593 105.015C52.0514 105.392 52.2151 105.708 52.4689 105.937C52.7252 106.168 53.0482 106.286 53.4157 106.309L53.4344 106.01ZM52.2508 104.943L51.9683 104.843C51.9364 104.932 51.8948 105.018 51.8429 105.103L52.0984 105.26L52.3539 105.417C52.4271 105.298 52.487 105.174 52.5333 105.044L52.2508 104.943ZM52.0984 105.26L51.844 105.101C51.5941 105.501 51.2097 105.71 50.6336 105.71V106.01V106.31C51.3856 106.31 51.9778 106.019 52.3528 105.419L52.0984 105.26ZM50.6336 106.01V105.71C50.4397 105.71 50.2704 105.686 50.1233 105.641L50.0359 105.928L49.9486 106.215C50.1608 106.279 50.39 106.31 50.6336 106.31V106.01ZM50.0359 105.928L50.1275 105.642C49.8741 105.561 49.706 105.436 49.598 105.278C49.4884 105.118 49.4219 104.896 49.4219 104.592H49.1219H48.8219C48.8219 104.983 48.9077 105.332 49.1028 105.617C49.2995 105.904 49.5884 106.099 49.9444 106.214L50.0359 105.928ZM49.1219 104.592L49.4219 104.594C49.4234 104.39 49.4741 104.222 49.5664 104.081C49.6598 103.938 49.8065 103.806 50.0235 103.691C50.4655 103.458 51.1635 103.317 52.1511 103.298L52.1453 102.998L52.1395 102.698C51.1194 102.718 50.3095 102.862 49.7437 103.161C49.4568 103.312 49.2246 103.507 49.0641 103.753C48.9025 104 48.8242 104.282 48.8219 104.59L49.1219 104.592ZM52.1453 102.998H52.4453V102.236H52.1453H51.8453V102.998H52.1453ZM52.1453 102.236H52.4453C52.4453 101.997 52.4289 101.782 52.3931 101.594L52.0984 101.651L51.8037 101.707C51.8305 101.847 51.8453 102.023 51.8453 102.236H52.1453ZM52.0984 101.651L52.3939 101.599C52.3487 101.341 52.2551 101.108 52.085 100.937C51.908 100.76 51.6794 100.683 51.4305 100.683V100.983V101.283C51.5488 101.283 51.615 101.316 51.6607 101.362C51.7132 101.414 51.7701 101.515 51.803 101.702L52.0984 101.651ZM51.4305 100.983V100.683C51.285 100.683 51.144 100.709 51.0134 100.768L51.1375 101.041L51.2616 101.314C51.3029 101.296 51.3572 101.283 51.4305 101.283V100.983ZM51.1375 101.041L50.9854 100.783C50.857 100.858 50.7637 100.975 50.6941 101.1C50.6236 101.226 50.5669 101.377 50.5201 101.548L50.8094 101.627L51.0986 101.707C51.1378 101.564 51.1787 101.462 51.2176 101.393C51.2574 101.322 51.2852 101.302 51.2896 101.3L51.1375 101.041ZM50.8094 101.627L50.5209 101.545C50.4897 101.654 50.4678 101.726 50.4545 101.767L50.7391 101.861L51.0237 101.956C51.0415 101.903 51.0665 101.819 51.0978 101.709L50.8094 101.627ZM50.7391 101.861L50.4565 101.761C50.4133 101.882 50.3587 101.949 50.3053 101.988C50.2528 102.026 50.1772 102.054 50.0594 102.054V102.354V102.654C50.2775 102.654 50.4831 102.6 50.6572 102.474C50.8304 102.348 50.9477 102.169 51.0216 101.962L50.7391 101.861ZM50.0594 102.354V102.054C50.0117 102.054 49.9697 102.047 49.9316 102.034L49.8367 102.318L49.7419 102.603C49.8444 102.637 49.9508 102.654 50.0594 102.654V102.354ZM49.8367 102.318L49.915 102.029C49.8185 102.003 49.774 101.966 49.7509 101.936C49.7275 101.905 49.7031 101.849 49.7031 101.744H49.4031H49.1031C49.1031 101.944 49.151 102.137 49.2721 102.297C49.3936 102.458 49.5659 102.556 49.7584 102.608L49.8367 102.318ZM49.4031 101.744H49.7031C49.7031 101.667 49.7227 101.596 49.7658 101.524L49.5086 101.369L49.2513 101.215C49.1539 101.377 49.1031 101.555 49.1031 101.744H49.4031ZM49.5086 101.369L49.7666 101.522C49.8569 101.37 50.024 101.234 50.3125 101.134C50.6034 101.034 50.9995 100.978 51.5125 100.978V100.678V100.378C50.963 100.378 50.4939 100.437 50.1168 100.567C49.7373 100.698 49.4337 100.907 49.2506 101.216L49.5086 101.369ZM51.5125 100.678V100.978C51.766 100.978 51.9968 101.003 52.2061 101.052L52.2742 100.76L52.3424 100.468C52.0829 100.407 51.8058 100.378 51.5125 100.378V100.678ZM52.2742 100.76L52.2015 101.051C52.6044 101.152 52.8781 101.328 53.0541 101.561C53.2313 101.797 53.3336 102.122 53.3336 102.565H53.6336H53.9336C53.9336 102.031 53.8094 101.567 53.5334 101.2C53.2563 100.833 52.8503 100.595 52.347 100.469L52.2742 100.76ZM53.6336 102.565H53.3336V105.014H53.6336H53.9336V102.565H53.6336ZM53.6336 105.014H53.3336C53.3336 105.216 53.3555 105.408 53.4235 105.562C53.4981 105.732 53.6423 105.878 53.8642 105.898L53.8914 105.6L53.9186 105.301C53.933 105.302 53.9527 105.309 53.9686 105.322C53.9818 105.333 53.9803 105.338 53.9726 105.321C53.9546 105.28 53.9336 105.186 53.9336 105.014H53.6336ZM53.8914 105.6L53.9017 105.9C54.1627 105.891 54.3343 105.719 54.4322 105.523C54.5258 105.336 54.5759 105.088 54.6004 104.805L54.3016 104.779L54.0027 104.753C53.9804 105.01 53.9387 105.168 53.8955 105.255C53.8567 105.332 53.8467 105.301 53.8811 105.3L53.8914 105.6ZM54.3016 104.779L54.29 105.079L54.5947 105.091L54.6063 104.791L54.6178 104.491L54.3131 104.48L54.3016 104.779ZM54.6063 104.791L54.3076 104.762C54.2853 104.993 54.2527 105.172 54.2134 105.303L54.5008 105.389L54.7881 105.475C54.8426 105.293 54.8804 105.073 54.9049 104.82L54.6063 104.791ZM54.5008 105.389L54.2167 105.292C54.1681 105.436 54.0888 105.531 53.9777 105.595C53.8602 105.664 53.686 105.71 53.4344 105.71V106.01V106.31C53.753 106.31 54.0418 106.252 54.2797 106.114C54.5241 105.971 54.6929 105.756 54.7848 105.485L54.5008 105.389ZM51.243 105.506V105.806C51.3391 105.806 51.4346 105.786 51.5253 105.755L51.4305 105.471L51.3356 105.186C51.2858 105.203 51.2562 105.206 51.243 105.206V105.506ZM51.4305 105.471L51.5373 105.751C51.999 105.575 52.2769 105.124 52.4348 104.542L52.1453 104.463L51.8558 104.384C51.7169 104.896 51.5182 105.116 51.3237 105.19L51.4305 105.471ZM52.1453 104.463H52.4453V103.326H52.1453H51.8453V104.463H52.1453ZM52.1453 103.326L52.132 103.027C51.7659 103.043 51.449 103.088 51.1892 103.169L51.2781 103.455L51.367 103.742C51.5603 103.682 51.8216 103.641 52.1586 103.626L52.1453 103.326ZM51.2781 103.455L51.1739 103.174C50.9097 103.272 50.6947 103.433 50.5494 103.665C50.4062 103.893 50.3453 104.165 50.3453 104.463H50.6453H50.9453C50.9453 104.245 50.9899 104.092 51.0576 103.984C51.1232 103.879 51.2247 103.795 51.3823 103.737L51.2781 103.455ZM50.6453 104.463L50.3453 104.466C50.3495 104.826 50.4033 105.144 50.5403 105.383C50.6897 105.643 50.9294 105.794 51.231 105.806L51.243 105.506L51.255 105.206C51.1659 105.203 51.1107 105.171 51.0609 105.084C50.9987 104.976 50.949 104.78 50.9453 104.46L50.6453 104.463ZM57.9691 105.6L57.9102 105.894L57.9234 105.896L57.9691 105.6ZM58.1214 105.893V106.193H58.4214V105.893H58.1214ZM55.3792 105.893H55.0792V106.193H55.3792V105.893ZM55.3792 105.588V105.288H55.0792V105.588H55.3792ZM55.555 105.576L55.5203 105.278L55.5126 105.279L55.555 105.576ZM56.0589 101.158H56.3589V100.858H56.0589V101.158ZM55.3792 101.158H55.0792V101.458H55.3792V101.158ZM55.3792 100.854V100.554H55.0792V100.854H55.3792ZM57.4652 100.854L57.7645 100.834L57.7465 100.554H57.4652V100.854ZM57.5238 101.768L57.2244 101.787L57.2954 102.895L57.7921 101.902L57.5238 101.768ZM57.805 101.358L58.03 101.556L58.0303 101.556L57.805 101.358ZM59.8441 100.772L59.9438 100.489L59.9389 100.487L59.8441 100.772ZM60.8753 105.588H60.5753V105.888H60.8753V105.588ZM61.4027 105.6L61.3533 105.896L61.357 105.896L61.4027 105.6ZM61.555 105.893V106.193H61.855V105.893H61.555ZM58.848 105.893H58.548V106.193H58.848V105.893ZM58.848 105.588V105.288H58.548V105.588H58.848ZM59.1292 105.553L59.2154 105.84L59.2202 105.839L59.1292 105.553ZM59.3636 102.072L59.0669 102.117L59.0671 102.118L59.3636 102.072ZM58.2386 101.369L58.3706 101.639L58.3728 101.638L58.2386 101.369ZM57.5589 102.588L57.2601 102.562L57.259 102.574L57.2589 102.587L57.5589 102.588ZM57.5472 105.588L57.2472 105.587L57.246 105.888H57.5472V105.588ZM57.8402 105.588V105.888C57.8706 105.888 57.8936 105.891 57.9102 105.894L57.9691 105.6L58.0279 105.306C57.9664 105.293 57.9034 105.288 57.8402 105.288V105.588ZM57.9691 105.6L57.9234 105.896C57.9046 105.893 57.8801 105.885 57.8567 105.868C57.8339 105.851 57.8221 105.833 57.8172 105.823C57.8128 105.815 57.8144 105.814 57.8168 105.827C57.8191 105.84 57.8214 105.861 57.8214 105.893H58.1214H58.4214C58.4214 105.782 58.4069 105.657 58.3495 105.546C58.2836 105.42 58.1676 105.327 58.0147 105.303L57.9691 105.6ZM58.1214 105.893V105.593H55.3792V105.893V106.193H58.1214V105.893ZM55.3792 105.893H55.6792V105.588H55.3792H55.0792V105.893H55.3792ZM55.3792 105.588V105.888C55.4541 105.888 55.527 105.883 55.5974 105.873L55.555 105.576L55.5126 105.279C55.4736 105.285 55.4293 105.288 55.3792 105.288V105.588ZM55.555 105.576L55.5896 105.874C55.8101 105.849 56.0158 105.765 56.1623 105.591C56.3066 105.42 56.3589 105.202 56.3589 104.979H56.0589H55.7589C55.7589 105.114 55.7273 105.176 55.7036 105.204C55.6821 105.23 55.6358 105.265 55.5204 105.278L55.555 105.576ZM56.0589 104.979H56.3589V101.158H56.0589H55.7589V104.979H56.0589ZM56.0589 101.158V100.858H55.3792V101.158V101.458H56.0589V101.158ZM55.3792 101.158H55.6792V100.854H55.3792H55.0792V101.158H55.3792ZM55.3792 100.854V101.154H57.4652V100.854V100.554H55.3792V100.854ZM57.4652 100.854L57.1658 100.873L57.2244 101.787L57.5238 101.768L57.8231 101.749L57.7645 100.834L57.4652 100.854ZM57.5238 101.768L57.7921 101.902C57.8494 101.787 57.9278 101.672 58.03 101.556L57.805 101.358L57.58 101.159C57.4478 101.309 57.3387 101.467 57.2554 101.634L57.5238 101.768ZM57.805 101.358L58.0303 101.556C58.3755 101.163 58.7796 100.978 59.2581 100.978V100.678V100.378C58.596 100.378 58.0314 100.646 57.5797 101.159L57.805 101.358ZM59.2581 100.678V100.978C59.4299 100.978 59.5931 101.004 59.7492 101.056L59.8441 100.772L59.9389 100.487C59.72 100.414 59.4926 100.378 59.2581 100.378V100.678ZM59.8441 100.772L59.7444 101.055C60.0234 101.153 60.2222 101.319 60.3566 101.555C60.4948 101.799 60.5753 102.136 60.5753 102.588H60.8753H61.1753C61.1753 102.071 61.084 101.621 60.8784 101.259C60.669 100.89 60.3522 100.633 59.9437 100.489L59.8441 100.772ZM60.8753 102.588H60.5753V105.588H60.8753H61.1753V102.588H60.8753ZM60.8753 105.588V105.888H61.262V105.588V105.288H60.8753V105.588ZM61.262 105.588V105.888C61.2922 105.888 61.3225 105.891 61.3533 105.896L61.4027 105.6L61.452 105.304C61.389 105.293 61.3257 105.288 61.262 105.288V105.588ZM61.4027 105.6L61.357 105.896C61.3382 105.893 61.3137 105.885 61.2903 105.868C61.2675 105.851 61.2557 105.833 61.2507 105.823C61.2464 105.815 61.248 105.814 61.2504 105.827C61.2527 105.84 61.255 105.861 61.255 105.893H61.555H61.855C61.855 105.782 61.8405 105.657 61.7831 105.546C61.7172 105.42 61.6012 105.327 61.4483 105.303L61.4027 105.6ZM61.555 105.893V105.593H58.848V105.893V106.193H61.555V105.893ZM58.848 105.893H59.148V105.588H58.848H58.548V105.893H58.848ZM58.848 105.588V105.888C58.9773 105.888 59.1017 105.874 59.2154 105.84L59.1292 105.553L59.043 105.266C59.0005 105.278 58.9374 105.288 58.848 105.288V105.588ZM59.1292 105.553L59.2202 105.839C59.401 105.781 59.5246 105.651 59.5963 105.491C59.6636 105.341 59.687 105.164 59.687 104.979H59.387H59.087C59.087 105.122 59.0675 105.204 59.0489 105.245C59.0447 105.255 59.0411 105.261 59.0386 105.264C59.0374 105.266 59.0364 105.267 59.0358 105.268C59.0352 105.269 59.0349 105.269 59.0349 105.269C59.0349 105.269 59.0351 105.269 59.0355 105.269C59.0359 105.268 59.0365 105.268 59.037 105.268C59.0383 105.267 59.0389 105.267 59.0383 105.267L59.1292 105.553ZM59.387 104.979H59.687V102.389H59.387H59.087V104.979H59.387ZM59.387 102.389H59.687C59.687 102.265 59.6782 102.144 59.6601 102.027L59.3636 102.072L59.0671 102.118C59.0802 102.204 59.087 102.294 59.087 102.389H59.387ZM59.3636 102.072L59.6603 102.028C59.6157 101.729 59.513 101.464 59.3208 101.271C59.1226 101.073 58.8634 100.987 58.5784 100.987V101.287V101.587C58.7388 101.587 58.8331 101.632 58.8966 101.696C58.9662 101.765 59.0334 101.892 59.0669 102.117L59.3636 102.072ZM58.5784 101.287V100.987C58.4126 100.987 58.2536 101.026 58.1044 101.101L58.2386 101.369L58.3728 101.638C58.4423 101.603 58.5099 101.587 58.5784 101.587V101.287ZM58.2386 101.369L58.1065 101.1C57.5787 101.359 57.32 101.886 57.2601 102.562L57.5589 102.588L57.8577 102.614C57.9072 102.056 58.1016 101.771 58.3706 101.639L58.2386 101.369ZM57.5589 102.588L57.2589 102.587L57.2472 105.587L57.5472 105.588L57.8472 105.589L57.8589 102.589L57.5589 102.588ZM57.5472 105.588V105.888H57.8402V105.588V105.288H57.5472V105.588ZM66.6288 105.893L66.332 105.937L66.3701 106.193H66.6288V105.893ZM66.4647 104.791L66.7614 104.747L66.5936 103.62L66.1847 104.683L66.4647 104.791ZM66.3241 105.084L66.0649 104.933L66.0634 104.936L66.3241 105.084ZM63.5116 105.611L63.6899 105.37L63.6882 105.369L63.5116 105.611ZM63.1717 101.522L62.9399 101.331L62.9361 101.336L63.1717 101.522ZM66.4178 101.182L66.2218 101.409L66.7178 101.837V101.182H66.4178ZM66.4178 98.5802H66.7178V98.2802H66.4178V98.5802ZM65.3514 98.5802H65.0514V98.8802H65.3514V98.5802ZM65.3514 98.2755V97.9755H65.0514V98.2755H65.3514ZM67.9061 98.2755H68.2061V97.9755H67.9061V98.2755ZM67.9061 105.576H67.6061V105.876H67.9061V105.576ZM68.5858 105.588L68.6585 105.297L68.6516 105.295L68.6446 105.294L68.5858 105.588ZM68.7264 105.893V106.193H69.0264V105.893H68.7264ZM64.2264 104.135L64.5231 104.091L64.5226 104.087L64.2264 104.135ZM65.703 105.342L65.8595 105.598L65.8666 105.593L65.703 105.342ZM66.3944 102.354L66.6918 102.314L66.6909 102.308L66.3944 102.354ZM64.9061 101.17L64.7603 100.908L64.7511 100.913L64.9061 101.17ZM66.6288 105.893L66.9255 105.849L66.7614 104.747L66.4647 104.791L66.168 104.835L66.332 105.937L66.6288 105.893ZM66.4647 104.791L66.1847 104.683C66.1514 104.77 66.1115 104.853 66.0649 104.933L66.3241 105.084L66.5832 105.235C66.646 105.128 66.6999 105.015 66.7447 104.899L66.4647 104.791ZM66.3241 105.084L66.0634 104.936C65.7667 105.457 65.3287 105.71 64.7069 105.71V106.01V106.31C65.5382 106.31 66.1783 105.946 66.5847 105.233L66.3241 105.084ZM64.7069 106.01V105.71C64.335 105.71 63.9988 105.599 63.6899 105.37L63.5116 105.611L63.3332 105.853C63.7431 106.156 64.2037 106.31 64.7069 106.31V106.01ZM63.5116 105.611L63.6882 105.369C63.1514 104.978 62.8623 104.365 62.8623 103.467H62.5623H62.2623C62.2623 104.506 62.6061 105.323 63.3349 105.854L63.5116 105.611ZM62.5623 103.467H62.8623C62.8623 102.74 63.0503 102.16 63.4074 101.707L63.1717 101.522L62.9361 101.336C62.4806 101.914 62.2623 102.632 62.2623 103.467H62.5623ZM63.1717 101.522L63.4035 101.712C63.8149 101.212 64.3351 100.966 64.9881 100.966V100.666V100.366C64.1568 100.366 63.466 100.691 62.94 101.331L63.1717 101.522ZM64.9881 100.666V100.966C65.4751 100.966 65.881 101.115 66.2218 101.409L66.4178 101.182L66.6138 100.955C66.1578 100.561 65.6105 100.366 64.9881 100.366V100.666ZM66.4178 101.182H66.7178V98.5802H66.4178H66.1178V101.182H66.4178ZM66.4178 98.5802V98.2802H65.3514V98.5802V98.8802H66.4178V98.5802ZM65.3514 98.5802H65.6514V98.2755H65.3514H65.0514V98.5802H65.3514ZM65.3514 98.2755V98.5755H67.9061V98.2755V97.9755H65.3514V98.2755ZM67.9061 98.2755H67.6061V105.576H67.9061H68.2061V98.2755H67.9061ZM67.9061 105.576V105.876H68.4452V105.576V105.276H67.9061V105.576ZM68.4452 105.576V105.876C68.4868 105.876 68.5129 105.879 68.5269 105.882L68.5858 105.588L68.6446 105.294C68.5805 105.281 68.5129 105.276 68.4452 105.276V105.576ZM68.5858 105.588L68.513 105.879C68.4908 105.874 68.4676 105.862 68.448 105.844C68.4294 105.828 68.4212 105.813 68.4189 105.807C68.4168 105.803 68.4191 105.806 68.4217 105.822C68.4242 105.837 68.4264 105.86 68.4264 105.893H68.7264H69.0264C69.0264 105.783 69.013 105.663 68.9636 105.556C68.9089 105.437 68.8081 105.334 68.6585 105.297L68.5858 105.588ZM68.7264 105.893V105.593H66.6288V105.893V106.193H68.7264V105.893ZM64.1678 103.326H63.8678C63.8678 103.636 63.8882 103.922 63.9302 104.183L64.2264 104.135L64.5226 104.087C64.4865 103.864 64.4678 103.61 64.4678 103.326H64.1678ZM64.2264 104.135L63.9297 104.179C63.9995 104.647 64.1285 105.039 64.3424 105.319C64.5675 105.614 64.8763 105.771 65.2459 105.771V105.471V105.171C65.0687 105.171 64.9342 105.105 64.8194 104.955C64.6934 104.79 64.5861 104.513 64.5231 104.091L64.2264 104.135ZM65.2459 105.471V105.771C65.4655 105.771 65.6719 105.712 65.8594 105.598L65.703 105.342L65.5465 105.086C65.4528 105.143 65.3545 105.171 65.2459 105.171V105.471ZM65.703 105.342L65.8666 105.593C66.1865 105.385 66.4044 105.052 66.5416 104.636C66.6783 104.222 66.7412 103.707 66.7412 103.104H66.4413H66.1413C66.1413 103.672 66.0812 104.116 65.9718 104.448C65.8629 104.778 65.7116 104.978 65.5393 105.09L65.703 105.342ZM66.4413 103.104H66.7412C66.7412 102.826 66.7249 102.563 66.6917 102.314L66.3944 102.354L66.097 102.393C66.1263 102.613 66.1413 102.85 66.1413 103.104H66.4413ZM66.3944 102.354L66.6909 102.308C66.6207 101.85 66.4887 101.466 66.2681 101.19C66.0365 100.902 65.7224 100.753 65.3514 100.753V101.053V101.353C65.5429 101.353 65.6839 101.421 65.8 101.566C65.927 101.724 66.0352 101.99 66.0978 102.399L66.3944 102.354ZM65.3514 101.053V100.753C65.1426 100.753 64.9442 100.806 64.7604 100.908L64.9061 101.17L65.0518 101.432C65.1492 101.378 65.2477 101.353 65.3514 101.353V101.053ZM64.9061 101.17L64.7511 100.913C64.4276 101.108 64.207 101.43 64.0686 101.835C63.9309 102.237 63.8678 102.738 63.8678 103.326H64.1678H64.4678C64.4678 102.774 64.5278 102.346 64.6362 102.029C64.7438 101.715 64.8924 101.529 65.061 101.427L64.9061 101.17Z" fill="#A33757" mask="url(#path-28-outside-1_350_14571)"/>
<defs>
<linearGradient id="paint0_linear_350_14571" x1="39.9521" y1="33.2887" x2="33.0837" y2="83.232" gradientUnits="userSpaceOnUse">
<stop stop-color="white"/>
<stop offset="1" stop-color="#A33757" stop-opacity="0.3"/>
</linearGradient>
</defs>
</svg>
